<svg id="bc837c33-3351-452d-9b3d-275e41bb1c19" data-name="Logos" xmlns="http://www.w3.org/2000/svg" viewBox="0 0 300 300"><defs><style>.a6ec3782-d7b5-4a7a-8036-470af44215dc{fill:#34313f;}</style></defs><title>PartnerLogos-Vector</title><path id="eeb6a5c8-253f-48ed-b361-2e18c03dc496" data-name="colorgroup1" class="a6ec3782-d7b5-4a7a-8036-470af44215dc" d="M153.18,160.33V145.61a1.31,1.31,0,0,1,1.29-1.2h21c6,0,9.75,3.58,9.75,8.56,0,5.27-3.78,8.56-9.75,8.56h-21A1.3,1.3,0,0,1,153.18,160.33Zm1.29,35.12h21.69c6.67,0,10.65-3.38,10.65-9.35,0-5.17-3.78-9.35-10.65-9.35H154.47a1.31,1.31,0,0,0-1.29,1.19v16.22A1.31,1.31,0,0,0,154.47,195.45ZM231.28,67.2,169.2,129.09h10.15c15.82,0,25.17,9.95,25.17,20.79,0,8.56-5.77,14.83-11.94,17.62a1.15,1.15,0,0,0,.1,2.18c7.16,2.79,12.24,10.25,12.24,19,0,12.34-8.26,22.19-24.28,22.19h-44a1.31,1.31,0,0,1-1.29-1.2V162.82L67.21,230.68a1.45,1.45,0,0,0,1,2.48H232.08a1.09,1.09,0,0,0,1.09-1.09V68.1C233.47,67,232.08,66.41,231.28,67.2Z"/></svg>