<svg xmlns="http://www.w3.org/2000/svg" width="80.375" height="80.375" viewBox="0 0 80.375 80.375">
  <g id="Path_4" data-name="Path 4" fill="#c10230">
    <path d="M 40.1875 76.375 C 35.30045700073242 76.375 30.56171417236328 75.41875457763672 26.10291481018066 73.53284454345703 C 21.79421424865723 71.71041107177734 17.92375755310059 69.10061645507813 14.59907150268555 65.77593231201172 C 11.27438545227051 62.45124435424805 8.664586067199707 58.58078384399414 6.842157363891602 54.27208709716797 C 4.95624303817749 49.81328582763672 4 45.07454299926758 4 40.1875 C 4 35.30045700073242 4.95624303817749 30.56171417236328 6.842157363891602 26.10291481018066 C 8.664586067199707 21.79421424865723 11.27438545227051 17.92375755310059 14.59907150268555 14.59907150268555 C 17.92375755310059 11.27438545227051 21.79421424865723 8.664586067199707 26.10291481018066 6.842157363891602 C 30.56171417236328 4.95624303817749 35.30045700073242 4 40.1875 4 C 45.07454299926758 4 49.81328582763672 4.95624303817749 54.27208709716797 6.842157363891602 C 58.58078384399414 8.664586067199707 62.45124435424805 11.27438545227051 65.77593231201172 14.59907150268555 C 69.10061645507813 17.92375755310059 71.71041107177734 21.79421424865723 73.53284454345703 26.10291481018066 C 75.41875457763672 30.56171417236328 76.375 35.30045700073242 76.375 40.1875 C 76.375 45.07454299926758 75.41875457763672 49.81328582763672 73.53284454345703 54.27208709716797 C 71.71041107177734 58.58078384399414 69.10061645507813 62.45124435424805 65.77593231201172 65.77593231201172 C 62.45124435424805 69.10061645507813 58.58078384399414 71.71041107177734 54.27208709716797 73.53284454345703 C 49.81328582763672 75.41875457763672 45.07454299926758 76.375 40.1875 76.375 Z" stroke="none"/>
    <path d="M 40.1875 7.999992370605469 C 22.43924713134766 7.999992370605469 7.999992370605469 22.43924713134766 7.999992370605469 40.1875 C 7.999992370605469 57.93573760986328 22.43924713134766 72.37499237060547 40.1875 72.37499237060547 C 57.93573760986328 72.37499237060547 72.37499237060547 57.93573760986328 72.37499237060547 40.1875 C 72.37499237060547 22.43924713134766 57.93573760986328 7.999992370605469 40.1875 7.999992370605469 M 40.1875 -7.62939453125e-06 C 62.3824462890625 -7.62939453125e-06 80.37499237060547 17.9925537109375 80.37499237060547 40.1875 C 80.37499237060547 62.3824462890625 62.3824462890625 80.37499237060547 40.1875 80.37499237060547 C 17.9925537109375 80.37499237060547 -7.62939453125e-06 62.3824462890625 -7.62939453125e-06 40.1875 C -7.62939453125e-06 17.9925537109375 17.9925537109375 -7.62939453125e-06 40.1875 -7.62939453125e-06 Z" stroke="none" fill="#fff"/>
  </g>
</svg>
